<svg width="47" height="43" viewBox="0 0 47 43" fill="none" xmlns="http://www.w3.org/2000/svg">
<path d="M25.4636 19.9821C26.3798 20.7247 27.5992 20.9654 28.7385 20.6319L43.1237 17.352L44.3989 18.9885L20.276 26.0469C19.182 26.4525 18.3668 27.3671 18.095 28.4948L13.9421 42.2918L11.9319 42.5599L17.5724 18.5897C17.7605 17.4482 17.3181 16.3274 16.5203 15.4885L6.59797 4.45918L7.50379 2.30007L25.4636 19.9821ZM18.4016 38.3689L16.1475 42.0064L29.2158 40.2805C31.024 40.0673 32.6649 39.1356 33.7623 37.7054L46.2558 21.3779L45.5242 20.4325C45.5242 20.4325 36.546 30.2757 34.2362 32.8164C33.2188 33.9372 31.6824 34.4633 30.1808 34.7074L21.9169 35.7388C20.4502 36.1445 19.1925 37.0899 18.4016 38.3689ZM5.55975 6.94491L0.535889 18.9816C-0.178321 20.6284 -0.181805 22.5022 0.528921 24.1525L8.60821 43L9.84153 42.8384C8.61169 39.1287 5.55626 29.925 4.58424 27.0164C4.22888 25.9643 4.41004 23.9909 4.95354 22.5847L8.1762 15.0106C8.54898 13.5495 8.35039 12.0092 7.62225 10.689L5.55975 6.94491ZM8.4584 0L7.99503 1.12081C11.04 1.75686 21.0355 3.82314 24.5159 4.56233C26.0036 4.87863 27.2369 5.92036 28.1985 7.08931L33.2363 13.6285C34.3267 14.6771 35.7796 15.2822 37.302 15.3166L41.6187 15.4266L33.5707 5.12273C32.4803 3.68562 30.8428 2.75046 29.0381 2.52698L8.4584 0Z" fill="#139C91"/>
</svg>
