<svg width="198" height="43" viewBox="0 0 198 43" fill="none" xmlns="http://www.w3.org/2000/svg">
<g clip-path="url(#clip0_1794_7743)">
<path d="M63.2612 32.6681C61.5437 32.6681 60.0769 32.3759 58.8645 31.7914C57.6521 31.2069 56.6661 30.4334 55.8996 29.4776C55.1332 28.5184 54.5723 27.4835 54.2099 26.373C53.8476 25.2625 53.6699 24.1829 53.6699 23.1309V22.5705C53.6699 21.4187 53.8546 20.2807 54.2239 19.1634C54.5932 18.0425 55.1611 17.0283 55.924 16.1103C56.687 15.1958 57.6695 14.4601 58.861 13.91C60.056 13.3599 61.467 13.0848 63.101 13.0848C64.8011 13.0848 66.2888 13.3908 67.5604 13.9994C68.8321 14.6113 69.8459 15.4571 70.6019 16.5435C71.3579 17.63 71.8143 18.9021 71.9676 20.3598H68.2572C68.1353 19.5106 67.8392 18.7989 67.3688 18.2213C66.895 17.6437 66.2958 17.2037 65.5641 16.8977C64.8325 16.5917 64.0138 16.4404 63.101 16.4404C62.1882 16.4404 61.3729 16.602 60.6518 16.9252C59.9306 17.2483 59.3279 17.6987 58.8471 18.2729C58.3663 18.8505 58.0005 19.5278 57.7531 20.3082C57.5023 21.0887 57.3803 21.9448 57.3803 22.8765C57.3803 23.791 57.5058 24.6402 57.7531 25.4207C58.0005 26.2011 58.3767 26.8818 58.8749 27.4697C59.3732 28.0542 59.9863 28.508 60.718 28.8312C61.4496 29.1544 62.2927 29.316 63.2578 29.316C64.6653 29.316 65.8533 28.9722 66.8149 28.2846C67.7764 27.597 68.3617 26.6343 68.5673 25.3966H72.2777C72.107 26.7202 71.6506 27.9304 70.912 29.0341C70.1734 30.1377 69.1596 31.0178 67.8705 31.6779C66.5884 32.3381 65.0485 32.6681 63.2612 32.6681ZM80.9458 32.6681C79.5034 32.6681 78.2597 32.3999 77.2214 31.867C76.1832 31.3341 75.3854 30.6087 74.8384 29.6907C74.288 28.7762 74.0127 27.7585 74.0127 26.6377H77.5454C77.5454 27.5385 77.852 28.2605 78.4617 28.814C79.0714 29.3641 79.9006 29.6392 80.9493 29.6392C81.653 29.6392 82.2592 29.5085 82.7679 29.2438C83.2731 28.9825 83.6668 28.6181 83.942 28.1505C84.2172 27.6829 84.3531 27.1466 84.3531 26.5346C84.3531 25.6201 84.0535 24.8671 83.4507 24.2826C82.848 23.6982 82.0258 23.4059 80.9771 23.4059C80.4615 23.4059 80.0121 23.4781 79.6254 23.6225C79.2386 23.7669 78.9007 23.9388 78.6081 24.1451L76.9079 21.295L83.1198 17.1246L82.862 16.6914H74.7931V13.6143H87.088V17.3274L80.7193 21.4978L78.7335 21.1402C79.061 21.0371 79.4128 20.958 79.7891 20.8996C80.1654 20.8411 80.58 20.8102 81.0259 20.8102C82.4509 20.8102 83.6772 21.0509 84.698 21.5356C85.7188 22.0204 86.5062 22.6839 87.0566 23.5331C87.6071 24.3824 87.8823 25.3553 87.8823 26.4589V26.789C87.8823 27.8754 87.6071 28.8622 87.0566 29.7526C86.5062 30.6431 85.7153 31.3513 84.6841 31.8774C83.6528 32.4034 82.4056 32.6681 80.9458 32.6681ZM95.4843 21.0165H89.9414V18.3726H95.4843V21.0165ZM92.9828 16.0313C92.2965 16.0313 91.7878 15.8456 91.4604 15.4709C91.1329 15.0995 90.9691 14.6388 90.9691 14.0956C90.9691 13.5524 91.1329 13.0986 91.4604 12.7342C91.7878 12.3697 92.293 12.1875 92.9828 12.1875C93.6692 12.1875 94.1744 12.3697 94.4914 12.7342C94.8084 13.0986 94.9687 13.5524 94.9687 14.0956C94.9687 14.6388 94.8084 15.0961 94.4914 15.4709C94.1744 15.8456 93.6727 16.0313 92.9828 16.0313ZM95.4843 32.1833H91.9028V18.3726H95.4843V32.1833Z" fill="#424242"/>
<path d="M107.679 32.1837H106.285V13.5391H107.679V32.1837ZM113.117 23.3582H107.187V22.1377H113.298C114.243 22.1377 114.999 21.9761 115.566 21.6529C116.134 21.3297 116.545 20.8931 116.803 20.343C117.061 19.7929 117.19 19.1603 117.19 18.4486C117.19 17.737 117.061 17.1043 116.803 16.5543C116.545 16.0042 116.134 15.571 115.566 15.2581C114.999 14.9452 114.243 14.7871 113.298 14.7871H107.187V13.5391H113.117C114.371 13.5391 115.403 13.7419 116.211 14.151C117.019 14.5567 117.618 15.1171 118.016 15.8288C118.409 16.5405 118.608 17.3622 118.608 18.2974V18.6033C118.608 19.5351 118.409 20.3602 118.016 21.0719C117.618 21.7836 117.019 22.344 116.211 22.7497C115.403 23.1554 114.371 23.3582 113.117 23.3582ZM123.12 32.1837H121.754V18.8303H122.837V23.0006H122.632C122.632 22.1342 122.778 21.3813 123.071 20.7384C123.363 20.0955 123.809 19.5969 124.412 19.2497C125.015 18.9025 125.771 18.7271 126.68 18.7271H129.387V19.9476H126.346C125.297 19.9476 124.499 20.2192 123.949 20.7625C123.398 21.3057 123.123 22.1033 123.123 23.1554V32.1837H123.12ZM138.327 32.6169C137.191 32.6169 136.188 32.4141 135.31 32.005C134.432 31.5993 133.7 31.0629 133.105 30.4028C132.512 29.7427 132.066 29.0001 131.763 28.1784C131.464 27.3567 131.314 26.5109 131.314 25.648V25.3935C131.314 24.5134 131.467 23.6539 131.777 22.8253C132.087 21.9933 132.54 21.2472 133.143 20.5871C133.746 19.927 134.477 19.401 135.348 19.009C136.216 18.6205 137.209 18.4246 138.327 18.4246C139.428 18.4246 140.41 18.6205 141.278 19.009C142.145 19.401 142.881 19.9236 143.483 20.5871C144.086 21.2472 144.546 21.9933 144.863 22.8253C145.18 23.6573 145.34 24.5134 145.34 25.3935V25.648C145.34 26.5144 145.187 27.3567 144.877 28.1784C144.567 29.0001 144.117 29.7427 143.525 30.4028C142.933 31.0629 142.201 31.5993 141.334 32.005C140.463 32.4141 139.463 32.6169 138.327 32.6169ZM138.327 31.3724C139.529 31.3724 140.546 31.1007 141.382 30.5575C142.215 30.0143 142.853 29.2992 143.292 28.4087C143.731 27.5183 143.95 26.5556 143.95 25.5208C143.95 24.4515 143.727 23.4717 143.281 22.5812C142.835 21.6907 142.194 20.9791 141.362 20.4427C140.529 19.9098 139.519 19.6416 138.334 19.6416C137.167 19.6416 136.157 19.9098 135.306 20.4427C134.456 20.9756 133.808 21.6907 133.359 22.5812C132.913 23.4717 132.69 24.4515 132.69 25.5208C132.69 26.5556 132.91 27.5183 133.348 28.4087C133.787 29.2992 134.425 30.0143 135.268 30.5575C136.101 31.1007 137.125 31.3724 138.327 31.3724ZM156.238 19.9236H147.215V18.8303H156.238V19.9236ZM156.238 32.3109H153.994C153.151 32.3109 152.413 32.1872 151.779 31.9431C151.141 31.699 150.653 31.2761 150.308 30.6847C149.963 30.09 149.793 29.2958 149.793 28.2918V14.4811H151.134V28.5222C151.134 29.337 151.361 29.9696 151.817 30.4166C152.273 30.867 152.904 31.0904 153.712 31.0904H156.238V32.3109ZM165.648 32.6169C164.495 32.6169 163.499 32.4175 162.659 32.0187C161.816 31.6199 161.13 31.087 160.596 30.4166C160.063 29.7461 159.663 28.9932 159.398 28.1543C159.13 27.3154 158.997 26.4628 158.997 25.5964V25.342C158.997 24.4618 159.13 23.6126 159.398 22.7978C159.663 21.983 160.067 21.2438 160.61 20.5734C161.15 19.9029 161.83 19.3769 162.649 18.9953C163.464 18.6137 164.415 18.4246 165.498 18.4246C166.875 18.4246 168.028 18.7271 168.965 19.3288C169.902 19.9304 170.609 20.7143 171.09 21.6804C171.571 22.6465 171.811 23.6642 171.811 24.7334V25.648H159.645V24.5271H170.909L170.498 25.036C170.498 24.0011 170.306 23.0763 169.92 22.2649C169.533 21.4501 168.965 20.8106 168.219 20.343C167.47 19.8754 166.565 19.6451 165.498 19.6451C164.345 19.6451 163.384 19.9098 162.61 20.4324C161.837 20.9584 161.258 21.6632 160.872 22.5434C160.485 23.427 160.293 24.3999 160.293 25.4692C160.293 26.5384 160.485 27.5183 160.872 28.4087C161.258 29.2992 161.847 30.0212 162.638 30.5713C163.429 31.1214 164.432 31.3964 165.655 31.3964C166.962 31.3964 168.014 31.1007 168.812 30.506C169.609 29.9112 170.097 29.1995 170.268 28.3675H171.609C171.421 29.1995 171.059 29.9352 170.526 30.5816C169.993 31.228 169.317 31.7265 168.502 32.084C167.679 32.4382 166.732 32.6169 165.648 32.6169ZM181.27 32.6169C180.152 32.6169 179.176 32.4141 178.344 32.005C177.511 31.5993 176.814 31.056 176.257 30.3753C175.699 29.698 175.281 28.9416 175.006 28.1131C174.731 27.281 174.595 26.4422 174.595 25.5964V25.342C174.595 24.4756 174.731 23.6298 175.006 22.7978C175.281 21.9658 175.696 21.2266 176.257 20.5734C176.814 19.9201 177.511 19.3975 178.344 19.009C179.176 18.6205 180.152 18.4246 181.27 18.4246C182.354 18.4246 183.319 18.6205 184.169 19.009C185.019 19.401 185.716 19.9476 186.256 20.649C186.796 21.3538 187.137 22.1961 187.273 23.1794H185.932C185.779 22.1618 185.294 21.3194 184.489 20.649C183.681 19.9786 182.608 19.6451 181.267 19.6451C180.082 19.6451 179.093 19.9098 178.302 20.4324C177.511 20.9584 176.922 21.6632 176.536 22.5434C176.149 23.427 175.957 24.3999 175.957 25.4692C175.957 26.504 176.156 27.4701 176.55 28.3675C176.943 29.2683 177.539 29.9902 178.33 30.5438C179.121 31.0939 180.1 31.3689 181.267 31.3689C182.176 31.3689 182.981 31.2039 183.678 30.8738C184.374 30.5438 184.935 30.1037 185.367 29.5502C185.796 29.0001 186.054 28.3915 186.141 27.7314H187.482C187.36 28.7147 187.019 29.5674 186.451 30.2894C185.883 31.0114 185.155 31.5786 184.26 31.9946C183.364 32.4107 182.368 32.6169 181.27 32.6169ZM198 19.9236H188.977V18.8303H198V19.9236ZM198 32.3109H195.757C194.913 32.3109 194.175 32.1872 193.541 31.9431C192.903 31.699 192.415 31.2761 192.071 30.6847C191.726 30.09 191.555 29.2958 191.555 28.2918V14.4811H192.896V28.5222C192.896 29.337 193.123 29.9696 193.579 30.4166C194.035 30.867 194.666 31.0904 195.474 31.0904H198V32.3109Z" fill="#424242"/>
<path d="M25.4636 19.9821C26.3798 20.7247 27.5992 20.9654 28.7385 20.6319L43.1237 17.352L44.3989 18.9885L20.276 26.0469C19.182 26.4525 18.3668 27.3671 18.095 28.4948L13.9421 42.2918L11.9319 42.5599L17.5724 18.5897C17.7605 17.4482 17.3181 16.3274 16.5203 15.4885L6.59797 4.45918L7.50379 2.30007L25.4636 19.9821ZM18.4016 38.3689L16.1475 42.0064L29.2158 40.2805C31.024 40.0673 32.6649 39.1356 33.7623 37.7054L46.2558 21.3779L45.5242 20.4325C45.5242 20.4325 36.546 30.2757 34.2362 32.8164C33.2188 33.9372 31.6824 34.4633 30.1808 34.7074L21.9169 35.7388C20.4502 36.1445 19.1925 37.0899 18.4016 38.3689ZM5.55975 6.94491L0.535889 18.9816C-0.178321 20.6284 -0.181805 22.5022 0.528921 24.1525L8.60821 43L9.84153 42.8384C8.61169 39.1287 5.55626 29.925 4.58424 27.0164C4.22888 25.9643 4.41004 23.9909 4.95354 22.5847L8.1762 15.0106C8.54898 13.5495 8.35039 12.0092 7.62225 10.689L5.55975 6.94491ZM8.4584 0L7.99503 1.12081C11.04 1.75686 21.0355 3.82314 24.5159 4.56233C26.0036 4.87863 27.2369 5.92036 28.1985 7.08931L33.2363 13.6285C34.3267 14.6771 35.7796 15.2822 37.302 15.3166L41.6187 15.4266L33.5707 5.12273C32.4803 3.68562 30.8428 2.75046 29.0381 2.52698L8.4584 0Z" fill="#139C91"/>
</g>
<defs>
<clipPath id="clip0_1794_7743">
<rect width="198" height="43" fill="white"/>
</clipPath>
</defs>
</svg>
